<svg width="12" height="12" viewBox="0 0 12 12" fill="none" xmlns="http://www.w3.org/2000/svg">
<g id="fi-rr-archive" clip-path="url(#clip0_3857_78130)">
<path id="Vector" d="M8.5 0H3.5C2.8372 0.000793929 2.20178 0.264441 1.73311 0.73311C1.26444 1.20178 1.00079 1.8372 1 2.5V9.5C1.00079 10.1628 1.26444 10.7982 1.73311 11.2669C2.20178 11.7356 2.8372 11.9992 3.5 12H8.5C9.1628 11.9992 9.79822 11.7356 10.2669 11.2669C10.7356 10.7982 10.9992 10.1628 11 9.5V2.5C10.9992 1.8372 10.7356 1.20178 10.2669 0.73311C9.79822 0.264441 9.1628 0.000793929 8.5 0V0ZM3.5 1H8.5C8.89782 1 9.27936 1.15803 9.56066 1.43934C9.84196 1.72064 10 2.10217 10 2.5V5.5H2V2.5C2 2.10217 2.15804 1.72064 2.43934 1.43934C2.72064 1.15803 3.10218 1 3.5 1ZM8.5 11H3.5C3.10218 11 2.72064 10.842 2.43934 10.5607C2.15804 10.2794 2 9.89782 2 9.5V6.5H10V9.5C10 9.89782 9.84196 10.2794 9.56066 10.5607C9.27936 10.842 8.89782 11 8.5 11Z" fill="#2C3C4E"/>
<path id="Vector_2" d="M5.5 3.5H6.5C6.63261 3.5 6.75978 3.44732 6.85355 3.35355C6.94732 3.25978 7 3.13261 7 3C7 2.86739 6.94732 2.74021 6.85355 2.64645C6.75978 2.55268 6.63261 2.5 6.5 2.5H5.5C5.36739 2.5 5.24021 2.55268 5.14645 2.64645C5.05268 2.74021 5 2.86739 5 3C5 3.13261 5.05268 3.25978 5.14645 3.35355C5.24021 3.44732 5.36739 3.5 5.5 3.5Z" fill="#2C3C4E"/>
<path id="Vector_3" d="M6.5 8.5H5.5C5.36739 8.5 5.24021 8.55268 5.14645 8.64645C5.05268 8.74022 5 8.86739 5 9C5 9.13261 5.05268 9.25979 5.14645 9.35356C5.24021 9.44733 5.36739 9.50001 5.5 9.50001H6.5C6.63261 9.50001 6.75978 9.44733 6.85355 9.35356C6.94732 9.25979 7 9.13261 7 9C7 8.86739 6.94732 8.74022 6.85355 8.64645C6.75978 8.55268 6.63261 8.5 6.5 8.5Z" fill="#2C3C4E"/>
</g>
<defs>
<clipPath id="clip0_3857_78130">
<rect width="12" height="12" fill="white"/>
</clipPath>
</defs>
</svg>
