<svg width="18" height="18" viewBox="0 0 18 18" fill="none" xmlns="http://www.w3.org/2000/svg">
<g id="condicioner-2-svgrepo-com 1">
<path id="Vector" d="M1.5 8.25C1.5 6.12868 1.5 5.06802 2.15901 4.40901C2.81802 3.75 3.87868 3.75 6 3.75H12C14.1213 3.75 15.1819 3.75 15.841 4.40901C16.5 5.06802 16.5 6.12868 16.5 8.25C16.5 11.0784 16.5 12.4927 15.6213 13.3713C14.7427 14.25 13.3284 14.25 10.5 14.25H7.5C4.67157 14.25 3.25736 14.25 2.37868 13.3713C1.5 12.4927 1.5 11.0784 1.5 8.25Z" stroke="#2C3C4E"/>
<path id="Vector_2" d="M13.5 13.875C13.5 12.8216 13.5 12.295 13.2472 11.9167C13.1378 11.7529 12.9971 11.6122 12.8333 11.5028C12.455 11.25 11.9284 11.25 10.875 11.25H7.125C6.07166 11.25 5.54498 11.25 5.16665 11.5028C5.00286 11.6122 4.86223 11.7529 4.75279 11.9167C4.5 12.295 4.5 12.8216 4.5 13.875" stroke="#2C3C4E" stroke-linecap="round"/>
<path id="Vector_3" d="M4.5 8.625H13.5" stroke="#2C3C4E" stroke-linecap="round"/>
<path id="Vector_4" d="M4.5 6.75H13.5" stroke="#2C3C4E" stroke-linecap="round"/>
</g>
</svg>
