<svg width="14" height="16" viewBox="0 0 14 16" fill="none" xmlns="http://www.w3.org/2000/svg">
<path id="Vector" d="M8.5 8.77778C8.5 9.63691 7.82845 10.3333 7 10.3333M10.75 3.33333H10.7575M10.75 8.77778C10.75 10.9255 9.07105 12.6667 7 12.6667C4.92894 12.6667 3.25 10.9255 3.25 8.77778C3.25 6.63002 4.92894 4.88889 7 4.88889C9.07105 4.88889 10.75 6.63002 10.75 8.77778ZM2.5 15H11.5C12.3284 15 13 14.3036 13 13.4444V2.55556C13 1.69645 12.3284 1 11.5 1H2.5C1.67157 1 1 1.69645 1 2.55556V13.4444C1 14.3036 1.67157 15 2.5 15Z" stroke="#2C3C4E" stroke-linecap="round" stroke-linejoin="round"/>
</svg>
