<svg width="19" height="20" viewBox="0 0 19 20" fill="none" xmlns="http://www.w3.org/2000/svg">
<g id="laundry-svgrepo-com 1">
<path id="Vector" d="M11 11.2222C11 12.02 10.3284 12.6667 9.5 12.6667M13.25 6.16667H13.2575M13.25 11.2222C13.25 13.2166 11.571 14.8333 9.5 14.8333C7.42893 14.8333 5.75 13.2166 5.75 11.2222C5.75 9.22788 7.42893 7.61111 9.5 7.61111C11.571 7.61111 13.25 9.22788 13.25 11.2222ZM5 17H14C14.8284 17 15.5 16.3533 15.5 15.5556V5.44444C15.5 4.6467 14.8284 4 14 4H5C4.17157 4 3.5 4.6467 3.5 5.44444V15.5556C3.5 16.3533 4.17157 17 5 17Z" stroke="#2C3C4E" stroke-linecap="round" stroke-linejoin="round"/>
</g>
</svg>
