<svg width="16" height="14" viewBox="0 0 16 14" fill="none" xmlns="http://www.w3.org/2000/svg">
<g id="drop-energy-water-energy-svgrepo-com 1" clip-path="url(#clip0_3857_78097)">
<g id="Group">
<path id="Vector" d="M4.5 11C4.76739 11.1859 5.64306 11.5168 6 11.5" stroke="#2C3C4E" stroke-linecap="round" stroke-linejoin="round"/>
<path id="Vector_2" d="M14.8581 5.79999C14.8009 5.69999 14.7152 5.64999 14.6009 5.64999H11.9152L13.5724 2.97499C13.6295 2.89999 13.6295 2.79999 13.5724 2.72499C13.5152 2.64999 13.4295 2.59999 13.3152 2.59999H9.57238C9.45809 2.59999 9.3438 2.67499 9.31523 2.77499L8.9438 3.74999C7.68666 2.12499 6.28711 1.19199 6.28711 1.16699C6.17282 1.06699 5.82997 1.06684 5.71568 1.16684C5.51568 1.36684 1.11523 5.29999 1.11523 8.07499C1.11523 10.925 3.31523 13.25 6.05809 13.25C6.97238 13.25 7.85809 12.975 8.62952 12.5L8.65809 12.475C8.68666 12.475 8.68666 12.45 8.71523 12.45L14.8295 6.09999C14.8867 5.99999 14.9152 5.89999 14.8581 5.79999ZM1.68666 8.07499C1.68666 5.82499 5.14381 2.74616 6.05809 1.87116C6.51523 2.32116 7.68666 3.02499 8.68666 4.34999L7.37238 7.74999C7.3438 7.82499 7.3438 7.89999 7.40095 7.97499C7.45809 8.04999 7.54381 8.07499 7.62952 8.07499H9.42952L8.25809 12.1C7.60095 12.525 6.82952 12.75 6.05809 12.75C3.62952 12.75 1.68666 10.65 1.68666 8.07499ZM9.08666 11.25L10.0867 7.87499C10.1152 7.79999 10.0867 7.72499 10.0295 7.64999C9.97238 7.59999 9.88666 7.54999 9.80095 7.54999H8.02952L9.77238 3.07499H12.8581L11.2009 5.74999C11.1438 5.82499 11.1438 5.92499 11.2009 5.99999C11.2581 6.07499 11.3438 6.12499 11.4581 6.12499H14.0009L9.08666 11.25Z" fill="#2C3C4E" stroke="#2C3C4E" stroke-width="0.4"/>
</g>
</g>
<defs>
<clipPath id="clip0_3857_78097">
<rect width="16" height="14" fill="white"/>
</clipPath>
</defs>
</svg>
