<svg width="12" height="12" viewBox="0 0 12 12" fill="none" xmlns="http://www.w3.org/2000/svg">
<g id="fi-rr-gym" clip-path="url(#clip0_3857_78120)">
<path id="Vector" d="M11.4711 3.41852L10.3801 2.32702L10.8536 1.85352C10.9013 1.8074 10.9394 1.75223 10.9656 1.69123C10.9918 1.63023 11.0056 1.56462 11.0062 1.49823C11.0068 1.43184 10.9941 1.366 10.969 1.30455C10.9438 1.2431 10.9067 1.18727 10.8597 1.14033C10.8128 1.09338 10.757 1.05625 10.6955 1.03111C10.6341 1.00597 10.5682 0.993323 10.5019 0.9939C10.4355 0.994477 10.3699 1.00827 10.3088 1.03447C10.2478 1.06068 10.1927 1.09877 10.1466 1.14652L9.67305 1.62002L8.58155 0.529025C8.23752 0.201186 7.78052 0.0183105 7.3053 0.0183105C6.83008 0.0183105 6.37308 0.201186 6.02905 0.529025C5.86133 0.696608 5.72828 0.8956 5.6375 1.11463C5.54672 1.33366 5.5 1.56843 5.5 1.80552C5.5 2.04262 5.54672 2.27739 5.6375 2.49642C5.72828 2.71545 5.86133 2.91444 6.02905 3.08203L7.12005 4.17302L4.17305 7.12002L3.08155 6.02902C2.73752 5.70119 2.28052 5.51831 1.8053 5.51831C1.33008 5.51831 0.873083 5.70119 0.529052 6.02902C0.361331 6.19661 0.228279 6.3956 0.137502 6.61463C0.0467241 6.83366 0 7.06843 0 7.30552C0 7.54262 0.0467241 7.77739 0.137502 7.99642C0.228279 8.21545 0.361331 8.41444 0.529052 8.58202L1.62005 9.67303L1.14655 10.1465C1.0988 10.1926 1.06071 10.2478 1.0345 10.3088C1.0083 10.3698 0.994504 10.4354 0.993927 10.5018C0.99335 10.5682 1.006 10.6341 1.03114 10.6955C1.05628 10.7569 1.09341 10.8128 1.14035 10.8597C1.1873 10.9067 1.24313 10.9438 1.30457 10.9689C1.36602 10.9941 1.43186 11.0067 1.49825 11.0062C1.56464 11.0056 1.63025 10.9918 1.69125 10.9656C1.75226 10.9394 1.80743 10.9013 1.85355 10.8535L2.32705 10.38L3.41855 11.471C3.58613 11.6387 3.78509 11.7717 4.00407 11.8624C4.22305 11.9531 4.45777 11.9998 4.6948 11.9998C4.93184 11.9998 5.16655 11.9531 5.38553 11.8624C5.60452 11.7717 5.80348 11.6387 5.97105 11.471C6.13876 11.3035 6.2718 11.1045 6.36257 10.8855C6.45334 10.6666 6.50006 10.4318 6.50006 10.1948C6.50006 9.95772 6.45334 9.72299 6.36257 9.504C6.2718 9.28502 6.13876 9.08607 5.97105 8.91852L4.88005 7.82752L7.83005 4.88002L8.92105 5.97102C9.08862 6.13867 9.28759 6.27166 9.50657 6.36239C9.72555 6.45313 9.96027 6.49983 10.1973 6.49983C10.4343 6.49983 10.6691 6.45313 10.888 6.36239C11.107 6.27166 11.306 6.13867 11.4736 5.97102C11.6413 5.80348 11.7743 5.60453 11.8651 5.38555C11.9558 5.16656 12.0026 4.93183 12.0026 4.69477C12.0026 4.45772 11.9558 4.22299 11.8651 4.004C11.7743 3.78502 11.6413 3.58607 11.4736 3.41852H11.4711ZM5.50005 10.195C5.50027 10.3008 5.47952 10.4055 5.43901 10.5031C5.39851 10.6008 5.33904 10.6895 5.26405 10.764C5.1108 10.9106 4.90689 10.9925 4.6948 10.9925C4.48272 10.9925 4.27881 10.9106 4.12555 10.764L1.23605 7.87452C1.08508 7.72355 1.00026 7.51878 1.00026 7.30527C1.00026 7.09176 1.08508 6.887 1.23605 6.73602C1.38703 6.58505 1.59179 6.50023 1.8053 6.50023C2.01881 6.50023 2.22358 6.58505 2.37455 6.73602L5.26405 9.62552C5.3391 9.70013 5.3986 9.78887 5.43911 9.88663C5.47962 9.98439 5.50033 10.0892 5.50005 10.195ZM10.7641 5.26402C10.6108 5.41063 10.4069 5.49246 10.1948 5.49246C9.98272 5.49246 9.77881 5.41063 9.62555 5.26402L6.73605 2.37453C6.6613 2.29977 6.602 2.21102 6.56154 2.11335C6.52108 2.01568 6.50026 1.91099 6.50026 1.80527C6.50026 1.59176 6.58508 1.387 6.73605 1.23602C6.88703 1.08505 7.09179 1.00023 7.3053 1.00023C7.51881 1.00023 7.72358 1.08505 7.87455 1.23602L10.7641 4.12552C10.8389 4.20024 10.8982 4.28898 10.9387 4.38666C10.9792 4.48433 11.0001 4.58904 11.0001 4.69477C11.0001 4.80051 10.9792 4.90522 10.9387 5.00289C10.8982 5.10057 10.8389 5.18931 10.7641 5.26402Z" fill="#374957"/>
</g>
<defs>
<clipPath id="clip0_3857_78120">
<rect width="12" height="12" fill="white"/>
</clipPath>
</defs>
</svg>
