<svg width="12" height="12" viewBox="0 0 12 12" fill="none" xmlns="http://www.w3.org/2000/svg">
<g clip-path="url(#clip0_3857_78133)">
<path d="M10.0007 4C9.47022 4 8.96151 3.78929 8.58644 3.41421C8.21137 3.03914 8.00065 2.53043 8.00065 2C8.00065 1.46957 8.21137 0.960859 8.58644 0.585786C8.96151 0.210714 9.47022 0 10.0007 0C10.5311 0 11.0398 0.210714 11.4149 0.585786C11.7899 0.960859 12.0007 1.46957 12.0007 2C12.0007 2.53043 11.7899 3.03914 11.4149 3.41421C11.0398 3.78929 10.5311 4 10.0007 4ZM10.0007 1C9.73544 1 9.48108 1.10536 9.29355 1.29289C9.10601 1.48043 9.00065 1.73478 9.00065 2C9.00065 2.26522 9.10601 2.51957 9.29355 2.70711C9.48108 2.89464 9.73544 3 10.0007 3C10.2659 3 10.5202 2.89464 10.7078 2.70711C10.8953 2.51957 11.0007 2.26522 11.0007 2C11.0007 1.73478 10.8953 1.48043 10.7078 1.29289C10.5202 1.10536 10.2659 1 10.0007 1ZM10.7267 12H6.29515C6.07099 12.002 5.85027 11.9448 5.65529 11.8342C5.46031 11.7235 5.29796 11.5634 5.18465 11.37C5.07361 11.1836 5.01379 10.9712 5.01124 10.7542C5.0087 10.5372 5.06352 10.3235 5.17015 10.1345L7.38815 6.155C7.50236 5.95777 7.66642 5.79402 7.86387 5.68019C8.06133 5.56636 8.28524 5.50644 8.51315 5.50644C8.74107 5.50644 8.96498 5.56636 9.16243 5.68019C9.35989 5.79402 9.52394 5.95777 9.63815 6.155L11.8507 10.1315C11.9575 10.3207 12.0125 10.5348 12.01 10.7521C12.0075 10.9694 11.9477 11.1822 11.8367 11.369C11.7234 11.5624 11.5612 11.7226 11.3663 11.8334C11.1714 11.9442 10.9508 12.0016 10.7267 12ZM8.51215 6.5C8.46159 6.49881 8.41164 6.51133 8.36762 6.53625C8.32361 6.56116 8.28716 6.59753 8.26215 6.6415L6.04415 10.621C6.02272 10.6579 6.01168 10.7 6.0122 10.7427C6.01273 10.7854 6.02481 10.8271 6.04715 10.8635C6.07276 10.9066 6.10948 10.942 6.15346 10.966C6.19744 10.99 6.24707 11.0017 6.29715 11H10.7287C10.7788 11.0015 10.8284 10.9895 10.8724 10.9653C10.9164 10.9412 10.9531 10.9057 10.9787 10.8625C11.0006 10.8255 11.0122 10.7833 11.0122 10.7402C11.0122 10.6972 11.0006 10.655 10.9787 10.618L8.76265 6.642C8.73776 6.59779 8.70128 6.56121 8.65714 6.53619C8.613 6.51117 8.56287 6.49865 8.51215 6.5ZM4.00065 11.5C4.00065 11.3674 3.94797 11.2402 3.85421 11.1464C3.76044 11.0527 3.63326 11 3.50065 11H1.67565C1.55872 10.9999 1.44382 10.9695 1.34221 10.9116C1.24061 10.8537 1.15579 10.7704 1.09609 10.6699C1.03639 10.5693 1.00386 10.455 1.00167 10.3381C0.999494 10.2212 1.02774 10.1057 1.08365 10.003L4.40965 3.853C4.46654 3.7458 4.55169 3.65623 4.65588 3.594C4.76006 3.53177 4.8793 3.49926 5.00065 3.5C5.12212 3.49901 5.24153 3.5314 5.34584 3.59365C5.45016 3.65591 5.53536 3.74562 5.59215 3.853L6.20565 4.9865C6.23691 5.04428 6.27924 5.09534 6.33022 5.13676C6.38121 5.17819 6.43986 5.20916 6.50282 5.22792C6.56578 5.24668 6.63181 5.25285 6.69716 5.24609C6.7625 5.23932 6.82587 5.21975 6.88365 5.1885C6.94143 5.15725 6.99249 5.11492 7.03392 5.06393C7.07534 5.01294 7.10631 4.95429 7.12507 4.89134C7.14383 4.82838 7.15 4.76234 7.14324 4.697C7.13648 4.63165 7.11691 4.56828 7.08565 4.5105L6.47265 3.3775C6.32937 3.11212 6.11698 2.89044 5.85797 2.73594C5.59896 2.58143 5.30299 2.49986 5.0014 2.49986C4.69981 2.49986 4.40384 2.58143 4.14484 2.73594C3.88583 2.89044 3.67344 3.11212 3.53015 3.3775L0.203652 9.5275C0.065704 9.78259 -0.0036721 10.0691 0.00230967 10.3591C0.00829143 10.649 0.0894262 10.9324 0.237778 11.1816C0.38613 11.4308 0.596619 11.6372 0.848657 11.7807C1.10069 11.9241 1.38565 11.9997 1.67565 12H3.50065C3.63326 12 3.76044 11.9473 3.85421 11.8536C3.94797 11.7598 4.00065 11.6326 4.00065 11.5Z" fill="#2C3C4E"/>
</g>
<defs>
<clipPath id="clip0_3857_78133">
<rect width="12" height="12" fill="white"/>
</clipPath>
</defs>
</svg>
