<svg width="19" height="18" viewBox="0 0 19 18" fill="none" xmlns="http://www.w3.org/2000/svg">
<path d="M17.2583 4.18823L11.7167 0.646245C11.0629 0.225164 10.2906 0 9.5 0C8.7094 0 7.93707 0.225164 7.28333 0.646245L1.74167 4.18823C1.20504 4.53176 0.765619 4.99476 0.461957 5.53662C0.158296 6.07848 -0.000328081 6.68263 5.09468e-07 7.29608V14.2511C0.00125756 15.245 0.418699 16.1979 1.16076 16.9007C1.90282 17.6035 2.9089 17.9988 3.95833 18H15.0417C16.0911 17.9988 17.0972 17.6035 17.8392 16.9007C18.5813 16.1979 18.9987 15.245 19 14.2511V7.29608C19.0003 6.68263 18.8417 6.07848 18.538 5.53662C18.2344 4.99476 17.795 4.53176 17.2583 4.18823ZM17.4167 14.2511C17.4167 14.8476 17.1664 15.4198 16.721 15.8416C16.2756 16.2634 15.6716 16.5004 15.0417 16.5004H3.95833C3.32844 16.5004 2.72435 16.2634 2.27896 15.8416C1.83356 15.4198 1.58333 14.8476 1.58333 14.2511V7.29608C1.58331 6.92788 1.67873 6.5653 1.86121 6.24017C2.04369 5.91505 2.30765 5.63732 2.62992 5.43137L8.17158 1.88939C8.56345 1.63725 9.02626 1.50244 9.5 1.50244C9.97374 1.50244 10.4366 1.63725 10.8284 1.88939L16.3701 5.43137C16.6924 5.63732 16.9563 5.91505 17.1388 6.24017C17.3213 6.5653 17.4167 6.92788 17.4167 7.29608V14.2511Z" fill="#CCCCCC"/>
<path d="M12.2708 15H6.72917C6.63341 15 6.53859 14.9784 6.45013 14.9366C6.36166 14.8947 6.28128 14.8333 6.21357 14.7559C6.14586 14.6785 6.09215 14.5867 6.0555 14.4856C6.01886 14.3845 6 14.2761 6 14.1667C6 13.9457 6.07682 13.7337 6.21357 13.5774C6.35031 13.4211 6.53578 13.3333 6.72917 13.3333H12.2708C12.3666 13.3333 12.4614 13.3549 12.5499 13.3968C12.6383 13.4386 12.7187 13.5 12.7864 13.5774C12.8541 13.6548 12.9079 13.7467 12.9445 13.8478C12.9811 13.9489 13 14.0572 13 14.1667C13 14.2761 12.9811 14.3845 12.9445 14.4856C12.9079 14.5867 12.8541 14.6785 12.7864 14.7559C12.7187 14.8333 12.6383 14.8947 12.5499 14.9366C12.4614 14.9784 12.3666 15 12.2708 15ZM13 11.6667C13 11.4899 12.9385 11.3203 12.8291 11.1953C12.7197 11.0702 12.5714 11 12.4167 11H6.58333C6.42862 11 6.28025 11.0702 6.17085 11.1953C6.06146 11.3203 6 11.4899 6 11.6667C6 11.8435 6.06146 12.013 6.17085 12.1381C6.28025 12.2631 6.42862 12.3333 6.58333 12.3333H12.4167C12.5714 12.3333 12.7197 12.2631 12.8291 12.1381C12.9385 12.013 13 11.8435 13 11.6667ZM13 9.5C13 9.36739 12.9539 9.24021 12.8719 9.14645C12.7898 9.05268 12.6785 9 12.5625 9H6.4375C6.32147 9 6.21019 9.05268 6.12814 9.14645C6.04609 9.24021 6 9.36739 6 9.5C6 9.63261 6.04609 9.75979 6.12814 9.85355C6.21019 9.94732 6.32147 10 6.4375 10H12.5625C12.6785 10 12.7898 9.94732 12.8719 9.85355C12.9539 9.75979 13 9.63261 13 9.5Z" fill="#CCCCCC"/>
</svg>
