<svg width="24" height="17" viewBox="0 0 24 17" fill="none" xmlns="http://www.w3.org/2000/svg">
<g clip-path="url(#clip0_4763_18938)">
<path d="M4.1739 7.17188H19.8261C21.699 7.17188 23.2174 8.71789 23.2174 10.625V12.75C23.2174 14.6571 21.699 16.2031 19.8261 16.2031H4.1739C2.30094 16.2031 0.782593 14.6571 0.782593 12.75V10.625C0.782593 8.71789 2.30093 7.17188 4.1739 7.17188Z" stroke="#CCCCCC" stroke-width="1.5"/>
<path d="M6.26087 0.796875H17.7391C19.6121 0.796875 21.1304 2.34289 21.1304 4.25V5.3125C21.1304 6.04601 20.5465 6.64062 19.8261 6.64062H4.17392C3.45354 6.64062 2.86957 6.04601 2.86957 5.3125V4.25C2.86957 2.34289 4.3879 0.796875 6.26087 0.796875Z" stroke="#CCCCCC" stroke-width="1.5"/>
<path d="M4.17389 6.8C4.17389 5.39168 5.29513 4.25 6.67824 4.25H10.0174C11.4005 4.25 12.5217 5.39168 12.5217 6.8C12.5217 7.15208 12.2414 7.4375 11.8956 7.4375H4.79998C4.4542 7.4375 4.17389 7.15208 4.17389 6.8Z" fill="#CCCCCC"/>
<path d="M11.4783 6.8C11.4783 5.39168 12.5995 4.25 13.9826 4.25H17.3218C18.7049 4.25 19.8261 5.39168 19.8261 6.8C19.8261 7.15208 19.5458 7.4375 19.2 7.4375H12.1044C11.7586 7.4375 11.4783 7.15208 11.4783 6.8Z" fill="#CCCCCC"/>
</g>
<defs>
<clipPath id="clip0_4763_18938">
<rect width="24" height="17" fill="white"/>
</clipPath>
</defs>
</svg>
