<svg width="24" height="24" viewBox="0 0 24 24" fill="none" xmlns="http://www.w3.org/2000/svg">
<g id="Group 101211">
<path id="Background" fill-rule="evenodd" clip-rule="evenodd" d="M12 24C18.6274 24 24 18.6274 24 12C24 5.37258 18.6274 0 12 0C5.37258 0 0 5.37258 0 12C0 18.6274 5.37258 24 12 24Z" fill="#F4F4F4"/>
<path id="SF Symbol / xmark" d="M8.18789 14.5176C7.93906 14.756 7.93398 15.1793 8.19297 15.4274C8.45703 15.6756 8.89883 15.6707 9.14258 15.4372L12.1488 12.5567L15.15 15.4323C15.4039 15.6756 15.8406 15.6756 16.0996 15.4274C16.3586 15.1744 16.3586 14.7608 16.1047 14.5176L13.1035 11.642L16.1047 8.76162C16.3586 8.51834 16.3637 8.0999 16.0996 7.85176C15.8406 7.60362 15.4039 7.60362 15.15 7.84689L12.1488 10.7224L9.14258 7.84689C8.89883 7.60848 8.45195 7.59875 8.19297 7.85176C7.93398 8.0999 7.93906 8.52807 8.18789 8.76162L11.1891 11.642L8.18789 14.5176Z" fill="#2C3C4E"/>
</g>
</svg>
