<svg width="17" height="16" viewBox="0 0 17 16" fill="none" xmlns="http://www.w3.org/2000/svg">
<path d="M12.7956 12.0003H4.20308C2.89395 12.0003 1.83268 10.9391 1.83268 9.62993V8.00033C1.83268 7.26393 2.42962 6.66699 3.16602 6.66699C3.90242 6.66699 4.49935 7.26393 4.49935 8.00033V8.80033C4.49935 9.09486 4.73815 9.33366 5.03268 9.33366H11.966C12.2606 9.33366 12.4993 9.09486 12.4993 8.80033V8.00033C12.4993 7.26393 13.0963 6.66699 13.8327 6.66699C14.5691 6.66699 15.166 7.26393 15.166 8.00033V9.62993C15.166 10.9391 14.1048 12.0003 12.7956 12.0003Z" stroke="#2C3C4E"/>
<path d="M3.16732 6.66634C3.16732 6.0468 3.16732 5.73703 3.21859 5.47943C3.42899 4.42159 4.25592 3.59467 5.31372 3.38425C5.57132 3.33301 5.88112 3.33301 6.50065 3.33301H10.5007C11.1202 3.33301 11.43 3.33301 11.6876 3.38425C12.7454 3.59467 13.5723 4.42159 13.7827 5.47943C13.834 5.73703 13.834 6.0468 13.834 6.66634" stroke="#2C3C4E"/>
<path d="M3.16732 12.6667V12M13.834 12.6667V12" stroke="#2C3C4E" stroke-linecap="round"/>
</svg>
