<svg width="34" height="34" viewBox="0 0 34 34" fill="none" xmlns="http://www.w3.org/2000/svg">
<g id="Group">
<path id="Vector" d="M8.48528 8.48542C3.79899 13.1717 3.79899 20.7697 8.48528 25.456C13.1716 30.1423 20.7695 30.1423 25.4558 25.456C30.1421 20.7697 30.1421 13.1717 25.4558 8.48542C20.7666 3.80629 13.1746 3.80629 8.48528 8.48542ZM21.6283 15.9716C22.1801 15.9487 22.646 16.3775 22.6688 16.9293C22.6917 17.4811 22.2629 17.947 21.7111 17.9698C21.6835 17.971 21.6559 17.971 21.6283 17.9698L17.9704 17.9705V21.6277C17.9608 22.1799 17.5054 22.6197 16.9532 22.6101C16.4145 22.6008 15.9801 22.1663 15.9707 21.6277L15.9707 17.9705L12.3136 17.9705C11.7614 17.9609 11.3215 17.5055 11.3311 16.9533C11.3405 16.4147 11.7749 15.9802 12.3136 15.9709L15.9707 15.9709L15.9714 12.313C15.9485 11.7612 16.3773 11.2953 16.9291 11.2724C17.4809 11.2496 17.9468 11.6783 17.9697 12.2301C17.9709 12.2578 17.9708 12.2854 17.9697 12.313L17.9704 15.9709L21.6283 15.9716Z" fill="#0A84FF"/>
</g>
</svg>
