<svg width="45" height="24" viewBox="0 0 45 24" fill="none" xmlns="http://www.w3.org/2000/svg">
<path d="M12 12C15.3137 12 18 9.31371 18 6C18 2.68629 15.3137 0 12 0C8.68629 0 6 2.68629 6 6C6 9.31371 8.68629 12 12 12Z" fill="white"/>
<path d="M12 13.999C7.03172 14.0046 3.00553 18.0307 3 22.999C3 23.5513 3.4477 23.999 3.99998 23.999H20C20.5522 23.999 21 23.5513 21 22.999C20.9945 18.0307 16.9683 14.0045 12 13.999Z" fill="white"/>
<path d="M33 12C36.3137 12 39 9.31371 39 6C39 2.68629 36.3137 0 33 0C29.6863 0 27 2.68629 27 6C27 9.31371 29.6863 12 33 12Z" fill="white"/>
<path d="M33 13.999C28.0317 14.0046 24.0055 18.0307 24 22.999C24 23.5513 24.4477 23.999 25 23.999H41C41.5522 23.999 42 23.5513 42 22.999C41.9945 18.0307 37.9683 14.0045 33 13.999Z" fill="white"/>
</svg>
