<svg width="12" height="12" viewBox="0 0 12 12" fill="none" xmlns="http://www.w3.org/2000/svg">
<g clip-path="url(#clip0_3857_78136)">
<path d="M6.5 7.09212V4.00012C6.5 3.86751 6.44732 3.74034 6.35356 3.64657C6.25979 3.5528 6.13261 3.50012 6 3.50012C5.86739 3.50012 5.74022 3.5528 5.64645 3.64657C5.55268 3.74034 5.5 3.86751 5.5 4.00012V7.09212C5.16723 7.21003 4.88684 7.44177 4.70837 7.74638C4.5299 8.05099 4.46483 8.40888 4.52465 8.75681C4.58447 9.10475 4.76534 9.42035 5.03531 9.64786C5.30527 9.87537 5.64696 10.0001 6 10.0001C6.35305 10.0001 6.69473 9.87537 6.9647 9.64786C7.23466 9.42035 7.41553 9.10475 7.47535 8.75681C7.53518 8.40888 7.4701 8.05099 7.29163 7.74638C7.11316 7.44177 6.83277 7.21003 6.5 7.09212ZM8.5 6.05562V2.50012C8.3945 -0.804374 3.6045 -0.799874 3.5 2.50012V6.05562C3.01767 6.5479 2.69141 7.17162 2.56213 7.84858C2.43285 8.52554 2.50631 9.2256 2.7733 9.86098C3.04029 10.4964 3.48892 11.0388 4.06294 11.4202C4.63695 11.8016 5.31081 12.0051 6 12.0051C6.6892 12.0051 7.36305 11.8016 7.93707 11.4202C8.51109 11.0388 8.95972 10.4964 9.2267 9.86098C9.49369 9.2256 9.56715 8.52554 9.43788 7.84858C9.3086 7.17162 8.98234 6.5479 8.5 6.05562ZM6 11.0001C5.49677 10.9945 5.00686 10.8376 4.59393 10.5499C4.18099 10.2622 3.86411 9.85703 3.68446 9.38692C3.50481 8.91681 3.47068 8.40355 3.58651 7.91379C3.70235 7.42404 3.96279 6.98044 4.334 6.64062C4.38623 6.59373 4.428 6.53638 4.4566 6.47229C4.4852 6.4082 4.49999 6.3388 4.5 6.26862V2.50012C4.5 2.1023 4.65804 1.72077 4.93934 1.43946C5.22065 1.15816 5.60218 1.00012 6 1.00012C6.39783 1.00012 6.77936 1.15816 7.06066 1.43946C7.34197 1.72077 7.5 2.1023 7.5 2.50012V6.26862C7.50001 6.3388 7.5148 6.4082 7.5434 6.47229C7.572 6.53638 7.61377 6.59373 7.666 6.64062C8.03722 6.98044 8.29766 7.42404 8.41349 7.91379C8.52932 8.40355 8.4952 8.91681 8.31554 9.38692C8.13589 9.85703 7.81901 10.2622 7.40608 10.5499C6.99314 10.8376 6.50324 10.9945 6 11.0001Z" fill="#2C3C4E"/>
</g>
<defs>
<clipPath id="clip0_3857_78136">
<rect width="12" height="12" fill="white"/>
</clipPath>
</defs>
</svg>
