<svg width="13" height="13" viewBox="0 0 13 13" fill="none" xmlns="http://www.w3.org/2000/svg">
<g clip-path="url(#clip0_3857_76790)">
<path d="M12.1019 3.91852L11.0109 2.82702L11.4844 2.35352C11.5322 2.3074 11.5703 2.25223 11.5965 2.19123C11.6227 2.13023 11.6365 2.06462 11.637 1.99823C11.6376 1.93184 11.625 1.866 11.5998 1.80455C11.5747 1.7431 11.5376 1.68727 11.4906 1.64033C11.4437 1.59338 11.3878 1.55625 11.3264 1.53111C11.2649 1.50597 11.1991 1.49332 11.1327 1.4939C11.0663 1.49448 11.0007 1.50827 10.9397 1.53447C10.8787 1.56068 10.8235 1.59877 10.7774 1.64652L10.3039 2.12002L9.21241 1.02902C8.86838 0.701186 8.41138 0.518311 7.93616 0.518311C7.46094 0.518311 7.00394 0.701186 6.65991 1.02902C6.49219 1.19661 6.35914 1.3956 6.26836 1.61463C6.17758 1.83366 6.13086 2.06843 6.13086 2.30552C6.13086 2.54262 6.17758 2.77739 6.26836 2.99642C6.35914 3.21545 6.49219 3.41444 6.65991 3.58203L7.75091 4.67302L4.80391 7.62002L3.71241 6.52902C3.36838 6.20119 2.91138 6.01831 2.43616 6.01831C1.96094 6.01831 1.50394 6.20119 1.15991 6.52902C0.99219 6.69661 0.859139 6.8956 0.768361 7.11463C0.677583 7.33366 0.630859 7.56843 0.630859 7.80552C0.630859 8.04262 0.677583 8.27739 0.768361 8.49642C0.859139 8.71545 0.99219 8.91444 1.15991 9.08202L2.25091 10.173L1.77741 10.6465C1.72966 10.6926 1.69157 10.7478 1.66536 10.8088C1.63916 10.8698 1.62536 10.9354 1.62479 11.0018C1.62421 11.0682 1.63686 11.1341 1.662 11.1955C1.68714 11.2569 1.72427 11.3128 1.77121 11.3597C1.81816 11.4067 1.87399 11.4438 1.93543 11.4689C1.99688 11.4941 2.06272 11.5067 2.12911 11.5062C2.1955 11.5056 2.26111 11.4918 2.32211 11.4656C2.38312 11.4394 2.43829 11.4013 2.48441 11.3535L2.95791 10.88L4.04941 11.971C4.21698 12.1387 4.41595 12.2717 4.63493 12.3624C4.85391 12.4531 5.08863 12.4998 5.32566 12.4998C5.5627 12.4998 5.79741 12.4531 6.01639 12.3624C6.23538 12.2717 6.43434 12.1387 6.60191 11.971C6.76962 11.8035 6.90266 11.6045 6.99343 11.3855C7.0842 11.1666 7.13092 10.9318 7.13092 10.6948C7.13092 10.4577 7.0842 10.223 6.99343 10.004C6.90266 9.78502 6.76962 9.58607 6.60191 9.41852L5.51091 8.32752L8.46091 5.38002L9.55191 6.47102C9.71948 6.63867 9.91845 6.77166 10.1374 6.86239C10.3564 6.95313 10.5911 6.99983 10.8282 6.99983C11.0652 6.99983 11.2999 6.95313 11.5189 6.86239C11.7379 6.77166 11.9368 6.63867 12.1044 6.47102C12.2721 6.30348 12.4052 6.10453 12.4959 5.88555C12.5867 5.66656 12.6334 5.43183 12.6334 5.19477C12.6334 4.95772 12.5867 4.72299 12.4959 4.504C12.4052 4.28502 12.2721 4.08607 12.1044 3.91852H12.1019ZM6.13091 10.695C6.13113 10.8008 6.11038 10.9055 6.06987 11.0031C6.02936 11.1008 5.9699 11.1895 5.89491 11.264C5.74166 11.4106 5.53775 11.4925 5.32566 11.4925C5.11358 11.4925 4.90967 11.4106 4.75641 11.264L1.86691 8.37452C1.71594 8.22355 1.63112 8.01878 1.63112 7.80527C1.63112 7.59176 1.71594 7.387 1.86691 7.23602C2.01789 7.08505 2.22265 7.00023 2.43616 7.00023C2.64967 7.00023 2.85444 7.08505 3.00541 7.23602L5.89491 10.1255C5.96996 10.2001 6.02946 10.2889 6.06997 10.3866C6.11048 10.4844 6.13119 10.5892 6.13091 10.695ZM11.3949 5.76402C11.2417 5.91063 11.0377 5.99246 10.8257 5.99246C10.6136 5.99246 10.4097 5.91063 10.2564 5.76402L7.36691 2.87453C7.29216 2.79977 7.23286 2.71102 7.1924 2.61335C7.15194 2.51568 7.13112 2.41099 7.13112 2.30527C7.13112 2.09176 7.21594 1.887 7.36691 1.73602C7.51789 1.58505 7.72265 1.50023 7.93616 1.50023C8.14967 1.50023 8.35444 1.58505 8.50541 1.73602L11.3949 4.62552C11.4697 4.70024 11.5291 4.78898 11.5696 4.88666C11.6101 4.98433 11.6309 5.08904 11.6309 5.19477C11.6309 5.30051 11.6101 5.40522 11.5696 5.50289C11.5291 5.60057 11.4697 5.68931 11.3949 5.76402Z" fill="#374957"/>
</g>
<defs>
<clipPath id="clip0_3857_76790">
<rect width="12" height="12" fill="white" transform="translate(0.630859 0.5)"/>
</clipPath>
</defs>
</svg>
