<svg width="24" height="24" viewBox="0 0 24 24" fill="none" xmlns="http://www.w3.org/2000/svg">
<path d="M12 9.00691C11.2087 9.00668 10.4351 9.24115 9.77712 9.68067C9.11911 10.1202 8.60625 10.745 8.3034 11.476C8.00056 12.2071 7.92134 13.0115 8.07578 13.7876C8.23021 14.5637 8.61136 15.2765 9.171 15.8359L11.458 18.0719C11.6034 18.2121 11.7975 18.2905 11.9995 18.2905C12.2015 18.2905 12.3956 18.2121 12.541 18.0719L14.841 15.8279C15.3986 15.2674 15.7776 14.5541 15.9301 13.7783C16.0826 13.0025 16.0017 12.1988 15.6977 11.4689C15.3937 10.7391 14.8802 10.1156 14.222 9.67742C13.5639 9.23922 12.7907 9.00589 12 9.00691ZM12 13.9989C11.8022 13.9989 11.6089 13.9403 11.4444 13.8304C11.28 13.7205 11.1518 13.5643 11.0761 13.3816C11.0004 13.1989 10.9806 12.9978 11.0192 12.8038C11.0578 12.6098 11.153 12.4317 11.2929 12.2918C11.4327 12.1519 11.6109 12.0567 11.8049 12.0181C11.9989 11.9795 12.2 11.9993 12.3827 12.075C12.5654 12.1507 12.7216 12.2789 12.8315 12.4433C12.9414 12.6078 13 12.8011 13 12.9989C13 13.2641 12.8946 13.5185 12.7071 13.706C12.5196 13.8936 12.2652 13.9989 12 13.9989ZM21.8 5.58591L14.8 0.861909C13.9742 0.300306 12.9987 0 12 0C11.0014 0 10.0258 0.300306 9.2 0.861909L2.2 5.58591C1.52215 6.04408 0.967097 6.6616 0.583525 7.38428C0.199953 8.10697 -0.000414419 8.91274 6.43539e-07 9.73091V19.0069C0.0015885 20.3325 0.528883 21.6034 1.46622 22.5407C2.40356 23.478 3.67441 24.0053 5 24.0069H19C20.3256 24.0053 21.5964 23.478 22.5338 22.5407C23.4711 21.6034 23.9984 20.3325 24 19.0069V9.73091C24.0004 8.91274 23.8001 8.10697 23.4165 7.38428C23.0329 6.6616 22.4778 6.04408 21.8 5.58591ZM16.243 17.2499L13.94 19.5069C13.4197 20.0103 12.724 20.2918 12 20.2918C11.276 20.2918 10.5803 20.0103 10.06 19.5069L7.76 17.2619C6.63376 16.1377 6.00025 14.6121 5.99885 13.0207C5.99744 11.4294 6.62825 9.90265 7.7525 8.77641C8.87675 7.65017 10.4024 7.01666 11.9937 7.01525C13.585 7.01385 15.1118 7.64466 16.238 8.76891C17.3606 9.89433 17.9915 11.4188 17.9924 13.0084C17.9934 14.598 17.3643 16.1232 16.243 17.2499Z" fill="white"/>
<rect x="6" y="6.00781" width="13" height="15" fill="white"/>
<path d="M10.2708 20.0078H4.72917C4.63341 20.0078 4.53859 19.9863 4.45013 19.9444C4.36166 19.9025 4.28128 19.8411 4.21357 19.7637C4.14586 19.6864 4.09215 19.5945 4.0555 19.4934C4.01886 19.3923 4 19.2839 4 19.1745C4 18.9535 4.07682 18.7415 4.21357 18.5852C4.35031 18.4289 4.53578 18.3411 4.72917 18.3411H10.2708C10.3666 18.3411 10.4614 18.3627 10.5499 18.4046C10.6383 18.4465 10.7187 18.5078 10.7864 18.5852C10.8541 18.6626 10.9079 18.7545 10.9445 18.8556C10.9811 18.9567 11 19.065 11 19.1745C11 19.2839 10.9811 19.3923 10.9445 19.4934C10.9079 19.5945 10.8541 19.6864 10.7864 19.7637C10.7187 19.8411 10.6383 19.9025 10.5499 19.9444C10.4614 19.9863 10.3666 20.0078 10.2708 20.0078ZM11 16.6745C11 16.4977 10.9385 16.3281 10.8291 16.2031C10.7197 16.0781 10.5714 16.0078 10.4167 16.0078H4.58333C4.42862 16.0078 4.28025 16.0781 4.17085 16.2031C4.06146 16.3281 4 16.4977 4 16.6745C4 16.8513 4.06146 17.0209 4.17085 17.1459C4.28025 17.2709 4.42862 17.3411 4.58333 17.3411H10.4167C10.5714 17.3411 10.7197 17.2709 10.8291 17.1459C10.9385 17.0209 11 16.8513 11 16.6745ZM11 14.5078C11 14.3752 10.9539 14.248 10.8719 14.1543C10.7898 14.0605 10.6785 14.0078 10.5625 14.0078H4.4375C4.32147 14.0078 4.21019 14.0605 4.12814 14.1543C4.04609 14.248 4 14.3752 4 14.5078C4 14.6404 4.04609 14.7676 4.12814 14.8614C4.21019 14.9551 4.32147 15.0078 4.4375 15.0078H10.5625C10.6785 15.0078 10.7898 14.9551 10.8719 14.8614C10.9539 14.7676 11 14.6404 11 14.5078Z" fill="#1F1F21"/>
</svg>
