<svg width="9" height="9" viewBox="0 0 9 9" fill="none" xmlns="http://www.w3.org/2000/svg">
<path d="M4.5 5.62207C3.87868 5.62207 3.375 6.12575 3.375 6.74707V8.99707H5.625V6.74707C5.625 6.12575 5.12132 5.62207 4.5 5.62207Z" fill="white"/>
<path d="M6.37501 6.74733V8.99733H7.875C8.49632 8.99733 9 8.49364 9 7.87233V4.45196C9.00009 4.25714 8.92438 4.06993 8.78887 3.92996L5.60213 0.48482C5.03984 -0.123559 4.09083 -0.160913 3.48246 0.401377C3.45356 0.428095 3.42571 0.455921 3.39901 0.48482L0.217881 3.92883C0.0782754 4.06939 -5.27078e-05 4.25948 2.66103e-08 4.45758V7.87233C2.66103e-08 8.49364 0.503684 8.99733 1.125 8.99733H2.62499V6.74733C2.63201 5.72477 3.4576 4.88974 4.4544 4.86569C5.48455 4.84084 6.36715 5.69009 6.37501 6.74733Z" fill="white"/>
<path d="M4.5 5.62207C3.87868 5.62207 3.375 6.12575 3.375 6.74707V8.99707H5.625V6.74707C5.625 6.12575 5.12132 5.62207 4.5 5.62207Z" fill="white"/>
</svg>
