<svg width="130" height="29" viewBox="0 0 130 29" fill="none" xmlns="http://www.w3.org/2000/svg">
<circle cx="14.5" cy="14.5" r="14.5" fill="#0A84FF"/>
<path d="M14.5 6.48242C15.1673 6.48242 15.8193 6.68347 16.3711 7.05859L21.0479 10.2139C21.5008 10.5199 21.8716 10.9323 22.1279 11.415C22.3842 11.8978 22.5188 12.4359 22.5186 12.9824V19.1787C22.5174 20.064 22.1643 20.9131 21.5381 21.5391C20.9119 22.1649 20.0631 22.5174 19.1777 22.5186H16.1904C16.3644 22.3785 16.5208 22.2177 16.6543 22.0381C18.7336 19.2487 19.7881 17.1563 19.7881 15.8193C19.7864 14.443 19.2284 13.1236 18.2373 12.1504C17.2461 11.1771 15.9018 10.6294 14.5 10.6279C13.0984 10.6295 11.7548 11.1772 10.7637 12.1504C9.77251 13.1236 9.21462 14.4429 9.21289 15.8193C9.21289 17.1563 10.2674 19.2487 12.3467 22.0381C12.4802 22.2177 12.6366 22.3785 12.8105 22.5186H9.82324C8.93758 22.5175 8.08819 22.1651 7.46191 21.5391C6.83573 20.9131 6.48359 20.064 6.48242 19.1787V12.9824C6.48215 12.436 6.61587 11.8977 6.87207 11.415C7.1283 10.9324 7.49937 10.5199 7.95215 10.2139L12.6299 7.05859C13.1815 6.68356 13.8329 6.48247 14.5 6.48242ZM14.0869 13.7676C14.498 13.6873 14.9243 13.7283 15.3115 13.8857C15.6986 14.0432 16.0299 14.3102 16.2627 14.6523C16.4953 14.9943 16.619 15.3964 16.6191 15.8076C16.6191 16.3594 16.3963 16.8891 15.999 17.2793C15.6016 17.6695 15.062 17.8887 14.5 17.8887C14.081 17.8886 13.6716 17.7667 13.3232 17.5381C12.9748 17.3095 12.7034 16.9846 12.543 16.6045C12.3826 16.2244 12.3402 15.8059 12.4219 15.4023C12.5036 14.9988 12.7057 14.6279 13.002 14.3369C13.2983 14.0459 13.6759 13.8479 14.0869 13.7676Z" fill="white"/>
<path d="M37.676 18V11.591C37.676 11.0883 37.7973 10.6333 38.04 10.226C38.2913 9.81867 38.625 9.498 39.041 9.264C39.4657 9.02133 39.938 8.9 40.458 8.9H43.851V10.72H40.731C40.4883 10.72 40.2803 10.8067 40.107 10.98C39.9423 11.1533 39.86 11.3657 39.86 11.617V12.93H43.409V14.737H39.86V18H37.676ZM44.9903 18V11.331H47.0183V18H44.9903ZM46.0043 10.577C45.6837 10.577 45.4063 10.46 45.1723 10.226C44.9383 9.992 44.8213 9.71467 44.8213 9.394C44.8213 9.07333 44.9383 8.796 45.1723 8.562C45.4063 8.31933 45.6837 8.198 46.0043 8.198C46.325 8.198 46.6023 8.31933 46.8363 8.562C47.0703 8.796 47.1873 9.07333 47.1873 9.394C47.1873 9.71467 47.0703 9.992 46.8363 10.226C46.6023 10.46 46.325 10.577 46.0043 10.577ZM48.4942 18V14.165C48.4942 13.6103 48.6286 13.1077 48.8972 12.657C49.1659 12.2063 49.5472 11.8467 50.0412 11.578C50.5439 11.3093 51.1376 11.175 51.8222 11.175C52.5156 11.175 53.1049 11.3093 53.5902 11.578C54.0842 11.8467 54.4612 12.2063 54.7212 12.657C54.9812 13.1077 55.1112 13.6103 55.1112 14.165V18H53.0962V14.217C53.0962 13.983 53.0399 13.7707 52.9272 13.58C52.8146 13.3807 52.6586 13.2247 52.4592 13.112C52.2686 12.9907 52.0519 12.93 51.8092 12.93C51.5579 12.93 51.3326 12.9907 51.1332 13.112C50.9426 13.2247 50.7909 13.3807 50.6782 13.58C50.5656 13.7707 50.5092 13.983 50.5092 14.217V18H48.4942ZM59.8822 18.156C59.3276 18.156 58.8249 18.0693 58.3742 17.896C57.9322 17.7227 57.5596 17.4757 57.2562 17.155C56.9529 16.8257 56.7189 16.44 56.5542 15.998C56.3896 15.556 56.3072 15.075 56.3072 14.555C56.3072 13.879 56.4416 13.2897 56.7102 12.787C56.9876 12.2843 57.3646 11.89 57.8412 11.604C58.3266 11.318 58.8812 11.175 59.5052 11.175C59.7739 11.175 60.0252 11.2097 60.2592 11.279C60.5019 11.3483 60.7186 11.4523 60.9092 11.591C61.1086 11.721 61.2732 11.877 61.4032 12.059H61.4422V8.51H63.4572V14.542C63.4572 15.27 63.3099 15.907 63.0152 16.453C62.7206 16.999 62.3046 17.4193 61.7672 17.714C61.2386 18.0087 60.6102 18.156 59.8822 18.156ZM59.8822 16.414C60.1942 16.414 60.4629 16.3403 60.6882 16.193C60.9222 16.037 61.0999 15.829 61.2212 15.569C61.3426 15.3003 61.4032 15.0013 61.4032 14.672C61.4032 14.3427 61.3426 14.048 61.2212 13.788C61.0999 13.528 60.9222 13.3243 60.6882 13.177C60.4629 13.021 60.1942 12.943 59.8822 12.943C59.5789 12.943 59.3102 13.021 59.0762 13.177C58.8422 13.3243 58.6646 13.528 58.5432 13.788C58.4219 14.048 58.3612 14.3427 58.3612 14.672C58.3612 15.0013 58.4219 15.3003 58.5432 15.569C58.6646 15.829 58.8422 16.037 59.0762 16.193C59.3102 16.3403 59.5789 16.414 59.8822 16.414ZM64.9093 18V14.061C64.9093 13.515 65.0349 13.0253 65.2863 12.592C65.5463 12.15 65.9146 11.8033 66.3913 11.552C66.8679 11.3007 67.4356 11.175 68.0943 11.175C68.4236 11.175 68.7269 11.214 69.0043 11.292C69.2816 11.3613 69.5329 11.461 69.7583 11.591C69.9923 11.7123 70.1916 11.8597 70.3563 12.033H70.3823C70.5556 11.8597 70.7549 11.7123 70.9803 11.591C71.2143 11.461 71.4699 11.3613 71.7473 11.292C72.0333 11.214 72.3409 11.175 72.6703 11.175C73.3289 11.175 73.8966 11.3007 74.3733 11.552C74.8499 11.8033 75.2183 12.15 75.4783 12.592C75.7383 13.0253 75.8683 13.515 75.8683 14.061V18H73.8403V14.126C73.8403 13.9093 73.7839 13.7143 73.6713 13.541C73.5673 13.359 73.4243 13.2117 73.2423 13.099C73.0603 12.9863 72.8523 12.93 72.6183 12.93C72.3843 12.93 72.1719 12.9863 71.9813 13.099C71.7993 13.2117 71.6563 13.359 71.5523 13.541C71.4483 13.7143 71.3963 13.9093 71.3963 14.126V18H69.3813V14.126C69.3813 13.9093 69.3249 13.7143 69.2123 13.541C69.1083 13.359 68.9609 13.2117 68.7703 13.099C68.5883 12.9863 68.3803 12.93 68.1463 12.93C67.9123 12.93 67.6999 12.9863 67.5093 13.099C67.3273 13.2117 67.1843 13.359 67.0803 13.541C66.9763 13.7143 66.9243 13.9093 66.9243 14.126V18H64.9093ZM79.6774 20.639V18.039C79.192 17.9177 78.776 17.7227 78.4294 17.454C78.0827 17.1767 77.8184 16.843 77.6364 16.453C77.4544 16.0543 77.3634 15.6253 77.3634 15.166V11.331H79.3784V15.101C79.3784 15.335 79.4347 15.5517 79.5474 15.751C79.66 15.9503 79.8117 16.1107 80.0024 16.232C80.2017 16.3447 80.4227 16.401 80.6654 16.401C80.9167 16.401 81.1377 16.3447 81.3284 16.232C81.5277 16.1107 81.6837 15.9503 81.7964 15.751C81.909 15.5517 81.9654 15.335 81.9654 15.101V11.331H83.9804V15.166C83.9804 15.6253 83.8894 16.05 83.7074 16.44C83.534 16.83 83.274 17.1637 82.9274 17.441C82.5894 17.7183 82.1777 17.9133 81.6924 18.026V20.639H79.6774ZM85.4364 18V13.294C85.4364 12.6873 85.6097 12.2107 85.9564 11.864C86.303 11.5173 86.784 11.344 87.3994 11.344H89.3364V12.982H87.8934C87.772 12.982 87.668 13.0253 87.5814 13.112C87.4947 13.19 87.4514 13.294 87.4514 13.424V18H85.4364ZM93.7204 18C92.9664 18 92.3034 17.8613 91.7314 17.584C91.1594 17.298 90.7131 16.908 90.3924 16.414C90.0804 15.9113 89.9244 15.3307 89.9244 14.672C89.9244 13.944 90.0761 13.32 90.3794 12.8C90.6828 12.28 91.0858 11.8813 91.5884 11.604C92.0998 11.318 92.6631 11.175 93.2784 11.175C93.9804 11.175 94.5654 11.3223 95.0334 11.617C95.5101 11.9117 95.8698 12.3147 96.1124 12.826C96.3551 13.3287 96.4764 13.905 96.4764 14.555C96.4764 14.6677 96.4678 14.802 96.4504 14.958C96.4418 15.1053 96.4288 15.2223 96.4114 15.309H92.0434C92.0954 15.5343 92.1951 15.725 92.3424 15.881C92.4898 16.037 92.6761 16.154 92.9014 16.232C93.1268 16.3013 93.3781 16.336 93.6554 16.336H95.6964V18H93.7204ZM91.9914 14.048H94.5264C94.5091 13.9093 94.4831 13.775 94.4484 13.645C94.4138 13.515 94.3574 13.4023 94.2794 13.307C94.2101 13.203 94.1278 13.1163 94.0324 13.047C93.9371 12.969 93.8244 12.9083 93.6944 12.865C93.5731 12.8217 93.4344 12.8 93.2784 12.8C93.0791 12.8 92.9014 12.8347 92.7454 12.904C92.5894 12.9733 92.4594 13.0687 92.3554 13.19C92.2514 13.3027 92.1691 13.437 92.1084 13.593C92.0564 13.7403 92.0174 13.892 91.9914 14.048ZM97.6505 18V14.165C97.6505 13.6103 97.7848 13.1077 98.0535 12.657C98.3222 12.2063 98.7035 11.8467 99.1975 11.578C99.7002 11.3093 100.294 11.175 100.978 11.175C101.672 11.175 102.261 11.3093 102.746 11.578C103.24 11.8467 103.617 12.2063 103.877 12.657C104.137 13.1077 104.267 13.6103 104.267 14.165V18H102.252V14.217C102.252 13.983 102.196 13.7707 102.083 13.58C101.971 13.3807 101.815 13.2247 101.615 13.112C101.425 12.9907 101.208 12.93 100.965 12.93C100.714 12.93 100.489 12.9907 100.289 13.112C100.099 13.2247 99.9472 13.3807 99.8345 13.58C99.7218 13.7707 99.6655 13.983 99.6655 14.217V18H97.6505ZM108.219 18C107.604 18 107.123 17.8267 106.776 17.48C106.43 17.1247 106.256 16.648 106.256 16.05V9.706H108.284V15.933C108.284 16.037 108.319 16.128 108.388 16.206C108.466 16.2753 108.557 16.31 108.661 16.31H110.117V18H108.219ZM105.164 12.982V11.331H110.117V12.982H105.164ZM113.798 18.156C113.209 18.156 112.689 18.0043 112.238 17.701C111.788 17.3977 111.437 16.9903 111.185 16.479C110.934 15.959 110.808 15.374 110.808 14.724C110.808 14.048 110.956 13.4457 111.25 12.917C111.545 12.3797 111.961 11.955 112.498 11.643C113.044 11.331 113.686 11.175 114.422 11.175C115.168 11.175 115.8 11.331 116.32 11.643C116.849 11.9463 117.252 12.3667 117.529 12.904C117.815 13.4327 117.958 14.0263 117.958 14.685V18H115.982V16.934H115.93C115.809 17.168 115.653 17.3803 115.462 17.571C115.272 17.753 115.038 17.896 114.76 18C114.492 18.104 114.171 18.156 113.798 18.156ZM114.396 16.414C114.7 16.414 114.964 16.3403 115.189 16.193C115.423 16.037 115.601 15.8247 115.722 15.556C115.844 15.2873 115.904 14.9883 115.904 14.659C115.904 14.3383 115.844 14.048 115.722 13.788C115.601 13.528 115.423 13.3243 115.189 13.177C114.964 13.021 114.7 12.943 114.396 12.943C114.084 12.943 113.811 13.021 113.577 13.177C113.343 13.3243 113.166 13.528 113.044 13.788C112.923 14.048 112.862 14.3383 112.862 14.659C112.862 14.9883 112.923 15.2873 113.044 15.556C113.166 15.8247 113.343 16.037 113.577 16.193C113.811 16.3403 114.084 16.414 114.396 16.414ZM119.448 18V8.51H121.463V18H119.448ZM122.965 18V16.401H126.176C126.263 16.401 126.341 16.3837 126.41 16.349C126.48 16.3057 126.536 16.2493 126.579 16.18C126.623 16.1107 126.644 16.037 126.644 15.959C126.644 15.8723 126.623 15.7943 126.579 15.725C126.536 15.6557 126.48 15.6037 126.41 15.569C126.341 15.5257 126.263 15.504 126.176 15.504H125.006C124.573 15.504 124.179 15.4347 123.823 15.296C123.477 15.1487 123.199 14.9233 122.991 14.62C122.792 14.308 122.692 13.905 122.692 13.411C122.692 13.0297 122.783 12.683 122.965 12.371C123.156 12.059 123.412 11.8077 123.732 11.617C124.062 11.4263 124.421 11.331 124.811 11.331H128.022V12.943H125.123C125.002 12.943 124.898 12.982 124.811 13.06C124.733 13.138 124.694 13.2333 124.694 13.346C124.694 13.4673 124.733 13.5713 124.811 13.658C124.898 13.736 125.002 13.775 125.123 13.775H126.267C126.753 13.775 127.169 13.8487 127.515 13.996C127.871 14.1347 128.144 14.36 128.334 14.672C128.534 14.984 128.633 15.387 128.633 15.881C128.633 16.271 128.534 16.6263 128.334 16.947C128.144 17.2677 127.884 17.5233 127.554 17.714C127.234 17.9047 126.87 18 126.462 18H122.965Z" fill="white"/>
</svg>
