<svg width="20" height="20" viewBox="0 0 20 20" fill="none" xmlns="http://www.w3.org/2000/svg">
<g id="fi-sr-marker" clip-path="url(#clip0_3857_76637)">
<path id="Vector" d="M9.99914 0.0354004C7.79409 0.0378263 5.68004 0.914797 4.12075 2.47392C2.56147 4.03305 1.68429 6.14702 1.68164 8.35207C1.68164 10.4937 3.33997 13.8454 6.61081 18.3137C7.00019 18.8472 7.51002 19.2811 8.09881 19.5803C8.6876 19.8795 9.3387 20.0354 9.99914 20.0354C10.6596 20.0354 11.3107 19.8795 11.8995 19.5803C12.4883 19.2811 12.9981 18.8472 13.3875 18.3137C16.6583 13.8454 18.3166 10.4937 18.3166 8.35207C18.314 6.14702 17.4368 4.03305 15.8775 2.47392C14.3182 0.914797 12.2042 0.0378263 9.99914 0.0354004ZM9.99914 11.6671C9.33987 11.6671 8.6954 11.4716 8.14724 11.1053C7.59908 10.739 7.17183 10.2184 6.91954 9.60935C6.66725 9.00026 6.60124 8.33004 6.72986 7.68343C6.85847 7.03683 7.17594 6.44289 7.64212 5.97671C8.10829 5.51054 8.70224 5.19307 9.34884 5.06445C9.99544 4.93583 10.6657 5.00184 11.2748 5.25414C11.8838 5.50643 12.4044 5.93367 12.7707 6.48183C13.137 7.03 13.3325 7.67446 13.3325 8.33373C13.3325 9.21779 12.9813 10.0656 12.3562 10.6908C11.731 11.3159 10.8832 11.6671 9.99914 11.6671Z" fill="white"/>
</g>
<defs>
<clipPath id="clip0_3857_76637">
<rect width="20" height="20" fill="white"/>
</clipPath>
</defs>
</svg>
