<svg width="20" height="20" viewBox="0 0 20 20" fill="none" xmlns="http://www.w3.org/2000/svg">
<g id="fi-sr-comment" clip-path="url(#clip0_3857_76696)">
<path id="Vector" d="M16.3968 2.29855C15.341 1.41993 14.1146 0.769522 12.7949 0.388304C11.4753 0.00708486 10.091 -0.0966776 8.72929 0.0835544C6.21018 0.410819 3.91003 1.68453 2.29589 3.64606C0.681756 5.60759 -0.125372 8.1099 0.0383953 10.6449C0.202163 13.1799 1.32455 15.5576 3.17765 17.2951C5.03076 19.0326 7.47567 19.9998 10.016 20.0002H15.8343C16.939 19.9989 17.998 19.5595 18.7791 18.7784C19.5602 17.9973 19.9996 16.9382 20.001 15.8336V9.42439V9.37189C19.9128 8.00976 19.5476 6.67993 18.9279 5.46373C18.3082 4.24753 17.447 3.17052 16.3968 2.29855ZM6.66762 5.83355H10.001C10.222 5.83355 10.4339 5.92135 10.5902 6.07763C10.7465 6.23391 10.8343 6.44587 10.8343 6.66689C10.8343 6.8879 10.7465 7.09986 10.5902 7.25614C10.4339 7.41242 10.222 7.50022 10.001 7.50022H6.66762C6.44661 7.50022 6.23465 7.41242 6.07837 7.25614C5.92209 7.09986 5.83429 6.8879 5.83429 6.66689C5.83429 6.44587 5.92209 6.23391 6.07837 6.07763C6.23465 5.92135 6.44661 5.83355 6.66762 5.83355ZM13.3343 14.1669H6.66762C6.44661 14.1669 6.23465 14.0791 6.07837 13.9228C5.92209 13.7665 5.83429 13.5546 5.83429 13.3336C5.83429 13.1125 5.92209 12.9006 6.07837 12.7443C6.23465 12.588 6.44661 12.5002 6.66762 12.5002H13.3343C13.5553 12.5002 13.7673 12.588 13.9235 12.7443C14.0798 12.9006 14.1676 13.1125 14.1676 13.3336C14.1676 13.5546 14.0798 13.7665 13.9235 13.9228C13.7673 14.0791 13.5553 14.1669 13.3343 14.1669ZM13.3343 10.8336H6.66762C6.44661 10.8336 6.23465 10.7458 6.07837 10.5895C5.92209 10.4332 5.83429 10.2212 5.83429 10.0002C5.83429 9.77921 5.92209 9.56725 6.07837 9.41097C6.23465 9.25469 6.44661 9.16689 6.66762 9.16689H13.3343C13.5553 9.16689 13.7673 9.25469 13.9235 9.41097C14.0798 9.56725 14.1676 9.77921 14.1676 10.0002C14.1676 10.2212 14.0798 10.4332 13.9235 10.5895C13.7673 10.7458 13.5553 10.8336 13.3343 10.8336Z" fill="white"/>
</g>
<defs>
<clipPath id="clip0_3857_76696">
<rect width="20" height="20" fill="white"/>
</clipPath>
</defs>
</svg>
