<svg width="15" height="12" viewBox="0 0 15 12" fill="none" xmlns="http://www.w3.org/2000/svg">
<g clip-path="url(#clip0_5486_13890)">
<path d="M12 5.5C13.3807 5.5 14.5 4.38071 14.5 3C14.5 1.61929 13.3807 0.5 12 0.5C10.6193 0.5 9.5 1.61929 9.5 3C9.5 4.38071 10.6193 5.5 12 5.5Z" stroke="white"/>
<path d="M1 3H9" stroke="white" stroke-linecap="round"/>
<path d="M3 6.5C1.61929 6.5 0.5 7.61929 0.5 9C0.5 10.3807 1.61929 11.5 3 11.5C4.38071 11.5 5.5 10.3807 5.5 9C5.5 7.61929 4.38071 6.5 3 6.5Z" stroke="white"/>
<path d="M14 9H6" stroke="white" stroke-linecap="round"/>
</g>
<defs>
<clipPath id="clip0_5486_13890">
<rect width="15" height="12" fill="white"/>
</clipPath>
</defs>
</svg>
