<svg width="13" height="12" viewBox="0 0 13 12" fill="none" xmlns="http://www.w3.org/2000/svg">
<g clip-path="url(#clip0_3857_76754)">
<path d="M4.65516 4.75C4.65516 4.99723 4.58095 5.2389 4.4419 5.44446C4.30285 5.65002 4.10522 5.81024 3.87399 5.90485C3.64277 5.99946 3.38833 6.02421 3.14286 5.97598C2.89739 5.92775 2.67191 5.8087 2.49494 5.63388C2.31796 5.45907 2.19744 5.23634 2.14862 4.99386C2.09979 4.75139 2.12485 4.50005 2.22063 4.27165C2.3164 4.04324 2.4786 3.84801 2.6867 3.71066C2.8948 3.57331 3.13945 3.5 3.38973 3.5C3.72535 3.5 4.04721 3.6317 4.28453 3.86612C4.52184 4.10054 4.65516 4.41848 4.65516 4.75ZM12.2478 6V5C12.2478 4.46957 12.0344 3.96086 11.6547 3.58579C11.275 3.21071 10.76 3 10.2231 3H7.6922C7.15522 3 6.64023 3.21071 6.26053 3.58579C5.88083 3.96086 5.66751 4.46957 5.66751 5V6H12.2478ZM1.11196 7V1.5C1.11196 1.36739 1.05863 1.24021 0.9637 1.14645C0.868775 1.05268 0.740028 1 0.605782 1C0.471537 1 0.34279 1.05268 0.247864 1.14645C0.152938 1.24021 0.0996094 1.36739 0.0996094 1.5L0.0996094 10.5C0.0996094 10.6326 0.152938 10.7598 0.247864 10.8536C0.34279 10.9473 0.471537 11 0.605782 11C0.740028 11 0.868775 10.9473 0.9637 10.8536C1.05863 10.7598 1.11196 10.6326 1.11196 10.5V9.5H11.2354V10.5C11.2354 10.6326 11.2887 10.7598 11.3837 10.8536C11.4786 10.9473 11.6073 11 11.7416 11C11.8758 11 12.0046 10.9473 12.0995 10.8536C12.1944 10.7598 12.2478 10.6326 12.2478 10.5V7H1.11196Z" fill="white"/>
</g>
<defs>
<clipPath id="clip0_3857_76754">
<rect width="12.1481" height="12" fill="white" transform="translate(0.0996094)"/>
</clipPath>
</defs>
</svg>
