<svg width="288" height="288" viewBox="0 0 288 288" fill="none" xmlns="http://www.w3.org/2000/svg">
<path d="M144 0C155.984 0 167.69 3.60269 177.6 10.3398L261.6 67.0117C269.734 72.5082 276.395 79.9162 280.998 88.5859C285.601 97.2556 288.005 106.922 288 116.737V228.018C287.981 243.92 281.653 259.165 270.405 270.41C259.157 281.655 243.907 287.981 228 288H174.392C177.505 285.49 180.294 282.597 182.686 279.38C220.029 229.284 238.962 191.706 238.962 167.695C238.932 142.974 228.917 119.273 211.114 101.793C193.312 84.3131 169.175 74.4813 144 74.4541C118.825 74.4814 94.6883 84.313 76.8857 101.793C59.0832 119.273 49.0683 142.974 49.0381 167.695C49.0381 191.706 67.9719 229.283 105.315 279.38C107.707 282.597 110.496 285.49 113.609 288H60C44.0929 287.981 28.8428 281.655 17.5947 270.41C6.34681 259.165 0.0191442 243.92 7.72326e-06 228.018V116.737C-0.00497299 106.922 2.39915 97.2556 7.00196 88.5859C11.6048 79.9162 18.2662 72.5082 26.4004 67.0117L110.4 10.3398C120.31 3.60268 132.016 6.29392e-06 144 0ZM136.576 130.837C143.958 129.395 151.611 130.134 158.564 132.963C165.518 135.791 171.462 140.582 175.644 146.728C179.825 152.873 182.058 160.099 182.058 167.49C182.058 177.401 178.048 186.907 170.911 193.915C163.774 200.924 154.093 204.861 144 204.861C136.473 204.861 129.115 202.67 122.856 198.563C116.598 194.457 111.72 188.62 108.84 181.791C105.96 174.962 105.206 167.448 106.675 160.199C108.143 152.95 111.768 146.291 117.09 141.064C122.412 135.838 129.194 132.279 136.576 130.837Z" fill="white"/>
</svg>
