<svg width="21" height="21" viewBox="0 0 21 21" fill="none" xmlns="http://www.w3.org/2000/svg">
<g id="fi-ss-user-add" clip-path="url(#clip0_3857_76661)">
<path id="Vector" d="M7.55953 10.08C10.343 10.08 12.5995 7.82351 12.5995 5.04C12.5995 2.25648 10.343 0 7.55953 0C4.77602 0 2.51953 2.25648 2.51953 5.04C2.51953 7.82351 4.77602 10.08 7.55953 10.08Z" fill="white"/>
<path id="Vector_2" d="M10.9561 11.7605H4.16388C3.05996 11.7618 2.00164 12.201 1.22105 12.9815C0.440455 13.7621 0.00133378 14.8205 0 15.9244L0 20.1605H15.12V15.9244C15.1187 14.8205 14.6795 13.7621 13.899 12.9815C13.1184 12.201 12.06 11.7618 10.9561 11.7605Z" fill="white"/>
<path id="Vector_3" d="M17.6394 8.39939V5.87939H15.9594V8.39939H13.4395V10.0794H15.9594V12.5994H17.6394V10.0794H20.1594V8.39939H17.6394Z" fill="white"/>
</g>
<defs>
<clipPath id="clip0_3857_76661">
<rect width="20.16" height="20.16" fill="white"/>
</clipPath>
</defs>
</svg>
