<svg width="24" height="24" viewBox="0 0 24 24" fill="none" xmlns="http://www.w3.org/2000/svg">
<path fill-rule="evenodd" clip-rule="evenodd" d="M12 24C18.6274 24 24 18.6274 24 12C24 5.37258 18.6274 0 12 0C5.37258 0 0 5.37258 0 12C0 18.6274 5.37258 24 12 24Z" fill="#F4F4F4"/>
<path d="M8.18789 15.1519C7.93906 15.4007 7.93398 15.8425 8.19297 16.1015C8.45703 16.3605 8.89883 16.3554 9.14258 16.1117L12.1488 13.1054L15.15 16.1066C15.4039 16.3605 15.8406 16.3605 16.0996 16.1015C16.3586 15.8375 16.3586 15.4058 16.1047 15.1519L13.1035 12.1507L16.1047 9.14449C16.3586 8.89058 16.3637 8.45386 16.0996 8.19488C15.8406 7.93589 15.4039 7.93589 15.15 8.1898L12.1488 11.191L9.14258 8.1898C8.89883 7.94097 8.45195 7.93082 8.19297 8.19488C7.93398 8.45386 7.93906 8.90074 8.18789 9.14449L11.1891 12.1507L8.18789 15.1519Z" fill="#2C3C4E"/>
</svg>
