<svg width="12" height="12" viewBox="0 0 12 12" fill="none" xmlns="http://www.w3.org/2000/svg">
<g id="fi-rr-search" clip-path="url(#clip0_3857_78976)">
<path id="Vector" d="M11.8539 11.1469L8.86938 8.16238C9.68269 7.16768 10.0826 5.89843 9.9863 4.61716C9.89003 3.3359 9.30499 2.14064 8.35217 1.27864C7.39936 0.416635 6.15168 -0.0461746 4.8672 -0.0140587C3.58273 0.0180572 2.35973 0.542641 1.45119 1.45119C0.542641 2.35973 0.0180572 3.58273 -0.0140587 4.8672C-0.0461746 6.15168 0.416635 7.39936 1.27864 8.35217C2.14064 9.30499 3.3359 9.89003 4.61716 9.9863C5.89843 10.0826 7.16768 9.68269 8.16238 8.86938L11.1469 11.8539C11.2412 11.945 11.3675 11.9954 11.4986 11.9942C11.6297 11.9931 11.7551 11.9405 11.8478 11.8478C11.9405 11.7551 11.9931 11.6297 11.9942 11.4986C11.9954 11.3675 11.945 11.2412 11.8539 11.1469ZM5.00038 9.00038C4.20925 9.00038 3.4359 8.76578 2.7781 8.32626C2.1203 7.88673 1.60761 7.26202 1.30486 6.53111C1.00211 5.80021 0.922897 4.99594 1.07724 4.22002C1.23158 3.44409 1.61254 2.73136 2.17195 2.17195C2.73136 1.61254 3.44409 1.23158 4.22002 1.07724C4.99594 0.922897 5.80021 1.00211 6.53111 1.30486C7.26202 1.60761 7.88673 2.1203 8.32626 2.7781C8.76578 3.4359 9.00038 4.20925 9.00038 5.00038C8.99919 6.06088 8.57738 7.0776 7.82749 7.82749C7.0776 8.57738 6.06088 8.99919 5.00038 9.00038Z" fill="#374957"/>
</g>
<defs>
<clipPath id="clip0_3857_78976">
<rect width="12" height="12" fill="white"/>
</clipPath>
</defs>
</svg>
