<svg width="12" height="12" viewBox="0 0 12 12" fill="none" xmlns="http://www.w3.org/2000/svg">
<g id="fi-rr-search" clip-path="url(#clip0_3857_77660)">
<path id="Vector" d="M11.8539 11.1468L8.86938 8.16235C9.68269 7.16765 10.0826 5.8984 9.9863 4.61713C9.89003 3.33586 9.30499 2.14061 8.35217 1.27861C7.39936 0.416604 6.15168 -0.0462051 4.8672 -0.0140892C3.58273 0.0180267 2.35973 0.54261 1.45119 1.45116C0.542641 2.3597 0.0180572 3.58269 -0.0140587 4.86717C-0.0461746 6.15165 0.416635 7.39933 1.27864 8.35214C2.14064 9.30496 3.3359 9.89 4.61716 9.98627C5.89843 10.0825 7.16768 9.68266 8.16238 8.86935L11.1469 11.8539C11.2412 11.9449 11.3675 11.9953 11.4986 11.9942C11.6297 11.993 11.7551 11.9405 11.8478 11.8478C11.9405 11.7551 11.9931 11.6296 11.9942 11.4986C11.9954 11.3675 11.945 11.2412 11.8539 11.1468ZM5.00038 9.00035C4.20925 9.00035 3.4359 8.76575 2.7781 8.32623C2.1203 7.8867 1.60761 7.26199 1.30486 6.53108C1.00211 5.80018 0.922897 4.99591 1.07724 4.21999C1.23158 3.44406 1.61254 2.73133 2.17195 2.17192C2.73136 1.61251 3.44409 1.23155 4.22002 1.07721C4.99594 0.922867 5.80021 1.00208 6.53111 1.30483C7.26202 1.60758 7.88673 2.12027 8.32626 2.77807C8.76578 3.43586 9.00038 4.20922 9.00038 5.00035C8.99919 6.06085 8.57738 7.07757 7.82749 7.82746C7.0776 8.57735 6.06088 8.99916 5.00038 9.00035Z" fill="white"/>
</g>
<defs>
<clipPath id="clip0_3857_77660">
<rect width="12" height="12" fill="white"/>
</clipPath>
</defs>
</svg>
