<svg width="9" height="9" viewBox="0 0 9 9" fill="none" xmlns="http://www.w3.org/2000/svg">
<g clip-path="url(#clip0_4003_22065)">
<path d="M0.645323 5.35492L2.07739 6.78698C2.27077 6.98031 2.53303 7.08892 2.80648 7.08892C3.07993 7.08892 3.34218 6.98031 3.53557 6.78698L7.95826 2.3643C8.02088 2.29946 8.05553 2.21263 8.05474 2.1225C8.05396 2.03237 8.01781 1.94615 7.95407 1.88242C7.89034 1.81869 7.80412 1.78253 7.71399 1.78175C7.62386 1.78097 7.53703 1.81562 7.4722 1.87823L3.04951 6.30092C2.98505 6.36536 2.89763 6.40157 2.80648 6.40157C2.71533 6.40157 2.62791 6.36536 2.56345 6.30092L1.13139 4.86886C1.06655 4.80624 0.979721 4.77159 0.889591 4.77238C0.799461 4.77316 0.713244 4.80931 0.64951 4.87305C0.585776 4.93678 0.549624 5.023 0.548841 5.11313C0.548058 5.20326 0.582706 5.29009 0.645323 5.35492Z" fill="white" stroke="white"/>
</g>
<defs>
<clipPath id="clip0_4003_22065">
<rect width="8.25" height="8.25" fill="white" transform="translate(0.125 0.03125)"/>
</clipPath>
</defs>
</svg>
