<svg width="11" height="11" viewBox="0 0 11 11" fill="none" xmlns="http://www.w3.org/2000/svg">
<g id="fi-rr-user" clip-path="url(#clip0_3857_76784)">
<path id="Vector" d="M5.90157 5.49991C6.40591 5.49991 6.89893 5.35036 7.31827 5.07016C7.73762 4.78996 8.06446 4.39171 8.25747 3.92575C8.45047 3.4598 8.50097 2.94708 8.40258 2.45243C8.30418 1.95777 8.06132 1.50341 7.70469 1.14678C7.34807 0.790158 6.8937 0.547294 6.39905 0.448901C5.9044 0.350509 5.39168 0.401007 4.92572 0.594011C4.45977 0.787015 4.06151 1.11386 3.78132 1.5332C3.50112 1.95255 3.35156 2.44557 3.35156 2.94991C3.35224 3.626 3.62111 4.27422 4.09919 4.75229C4.57726 5.23036 5.22547 5.49924 5.90157 5.49991ZM5.90157 1.24991C6.2378 1.24991 6.56647 1.34961 6.84604 1.53641C7.1256 1.72321 7.3435 1.98871 7.47217 2.29935C7.60084 2.60998 7.6345 2.95179 7.56891 3.28156C7.50331 3.61133 7.3414 3.91424 7.10365 4.15199C6.8659 4.38974 6.56299 4.55165 6.23322 4.61725C5.90345 4.68284 5.56164 4.64918 5.251 4.52051C4.94037 4.39184 4.67487 4.17394 4.48807 3.89438C4.30127 3.61482 4.20156 3.28614 4.20156 2.94991C4.20156 2.49904 4.38067 2.06664 4.69948 1.74782C5.0183 1.42901 5.4507 1.24991 5.90157 1.24991Z" fill="#374957"/>
<path id="Vector_2" d="M5.90118 6.3501C4.88707 6.35122 3.91482 6.75457 3.19773 7.47166C2.48065 8.18874 2.0773 9.161 2.07617 10.1751C2.07617 10.2878 2.12095 10.3959 2.20065 10.4756C2.28035 10.5553 2.38846 10.6001 2.50117 10.6001C2.61389 10.6001 2.72199 10.5553 2.80169 10.4756C2.8814 10.3959 2.92617 10.2878 2.92617 10.1751C2.92617 9.38608 3.23961 8.62938 3.79753 8.07146C4.35545 7.51354 5.11216 7.2001 5.90118 7.2001C6.6902 7.2001 7.4469 7.51354 8.00483 8.07146C8.56275 8.62938 8.87619 9.38608 8.87619 10.1751C8.87619 10.2878 8.92096 10.3959 9.00067 10.4756C9.08037 10.5553 9.18847 10.6001 9.30119 10.6001C9.4139 10.6001 9.522 10.5553 9.60171 10.4756C9.68141 10.3959 9.72619 10.2878 9.72619 10.1751C9.72506 9.161 9.32171 8.18874 8.60463 7.47166C7.88754 6.75457 6.91529 6.35122 5.90118 6.3501Z" fill="#374957"/>
</g>
<defs>
<clipPath id="clip0_3857_76784">
<rect width="10.2" height="10.2" fill="white" transform="translate(0.800781 0.399902)"/>
</clipPath>
</defs>
</svg>
