<svg width="16" height="14" viewBox="0 0 16 14" fill="none" xmlns="http://www.w3.org/2000/svg">
<g clip-path="url(#clip0_3857_78097)">
<path d="M4.5 11C4.76739 11.1859 5.64306 11.5168 6 11.5" stroke="#2C3C4E" stroke-linecap="round" stroke-linejoin="round"/>
<path d="M14.8581 5.79991C14.8009 5.69991 14.7152 5.64991 14.6009 5.64991H11.9152L13.5724 2.97488C13.6295 2.89988 13.6295 2.79988 13.5724 2.72488C13.5152 2.64988 13.4295 2.59988 13.3152 2.59988H9.57238C9.45809 2.59988 9.3438 2.67488 9.31523 2.77488L8.9438 3.74989C7.68666 2.12488 6.28711 1.19187 6.28711 1.16687C6.17282 1.06687 5.82997 1.06672 5.71568 1.16672C5.51568 1.36672 1.11523 5.29991 1.11523 8.07493C1.11523 10.925 3.31523 13.25 6.05809 13.25C6.97238 13.25 7.85809 12.975 8.62952 12.5L8.65809 12.475C8.68666 12.475 8.68666 12.45 8.71523 12.45L14.8295 6.09992C14.8867 5.99991 14.9152 5.89991 14.8581 5.79991ZM1.68666 8.07493C1.68666 5.82491 5.14381 2.74606 6.05809 1.87105C6.51523 2.32105 7.68666 3.02488 8.68666 4.3499L7.37238 7.74993C7.3438 7.82493 7.3438 7.89993 7.40095 7.97493C7.45809 8.04993 7.54381 8.07493 7.62952 8.07493H9.42952L8.25809 12.1C7.60095 12.525 6.82952 12.75 6.05809 12.75C3.62952 12.75 1.68666 10.65 1.68666 8.07493ZM9.08666 11.25L10.0867 7.87493C10.1152 7.79993 10.0867 7.72493 10.0295 7.64993C9.97238 7.59993 9.88666 7.54993 9.80095 7.54993H8.02952L9.77238 3.07489H12.8581L11.2009 5.74991C11.1438 5.82491 11.1438 5.92491 11.2009 5.99991C11.2581 6.07491 11.3438 6.12492 11.4581 6.12492H14.0009L9.08666 11.25Z" fill="#2C3C4E" stroke="#2C3C4E" stroke-width="0.4"/>
</g>
<defs>
<clipPath id="clip0_3857_78097">
<rect width="16" height="14" fill="white"/>
</clipPath>
</defs>
</svg>
