<svg width="21" height="20" viewBox="0 0 21 20" fill="none" xmlns="http://www.w3.org/2000/svg">
<path d="M11.1423 13.5238C11.6529 13.5238 12.0667 13.9502 12.0667 14.4762C12.0667 15.0022 11.6529 15.4286 11.1423 15.4286V13.5238ZM11.1331 15.4286C10.6225 15.4286 10.2086 15.0022 10.2086 14.4762C10.2086 13.9502 10.6225 13.5238 11.1331 13.5238V15.4286ZM8.65514 11.6571C8.27742 12.011 7.69281 11.9826 7.34929 11.5935C7.00568 11.2044 7.03341 10.6021 7.41104 10.2481L8.65514 11.6571ZM5.54592 8.13362C5.16829 8.48752 4.58359 8.45905 4.24007 8.06991C3.89646 7.68086 3.92419 7.07848 4.30182 6.72457L5.54592 8.13362ZM14.8735 10.2481C15.2512 10.6021 15.2789 11.2044 14.9354 11.5935C14.5918 11.9826 14.0071 12.011 13.6295 11.6571L14.8735 10.2481ZM17.9828 6.72457C18.3604 7.07848 18.3881 7.68086 18.0446 8.06991C17.701 8.45905 17.1164 8.48752 16.7387 8.13362L17.9828 6.72457ZM11.1423 15.4286H11.1331V13.5238H11.1423V15.4286ZM11.1423 10.6667C10.184 10.6667 9.31259 11.041 8.65514 11.6571L7.41104 10.2481C8.39556 9.32552 9.70612 8.7619 11.1423 8.7619V10.6667ZM11.1423 5.90476C8.98664 5.90476 7.02436 6.7481 5.54592 8.13362L4.30182 6.72457C6.10732 5.03257 8.5089 4 11.1423 4V5.90476ZM13.6295 11.6571C12.972 11.041 12.1007 10.6667 11.1423 10.6667V8.7619C12.5785 8.7619 13.889 9.32552 14.8735 10.2481L13.6295 11.6571ZM16.7387 8.13362C15.2602 6.7481 13.2979 5.90476 11.1423 5.90476V4C13.7758 4 16.1773 5.03257 17.9828 6.72457L16.7387 8.13362Z" fill="#2C3C4E"/>
</svg>
